<svg xmlns="http://www.w3.org/2000/svg" width="31.367" height="30.711" viewBox="0 0 31.367 30.711">
  <g id="like" transform="translate(0 -9.667)">
    <g id="Group_98" data-name="Group 98" transform="translate(0 23.388)">
      <g id="Group_97" data-name="Group 97">
        <path id="Path_167" data-name="Path 167" d="M3.267,224A3.272,3.272,0,0,0,0,227.267v10.456a3.272,3.272,0,0,0,3.267,3.267H7.188a3.244,3.244,0,0,0,1.96-.661V224Z" transform="translate(0 -224)" fill="#ffc529"/>
      </g>
    </g>
    <g id="Group_100" data-name="Group 100" transform="translate(10.456 9.667)">
      <g id="Group_99" data-name="Group 99">
        <path id="Path_168" data-name="Path 168" d="M191.578,28.637a2.9,2.9,0,0,0-.851-2.057,3.245,3.245,0,0,0,.836-2.495,3.378,3.378,0,0,0-3.408-2.963h-8.073a18.791,18.791,0,0,0,1.04-5.228c0-2.835-2.409-5.228-3.921-5.228a4.111,4.111,0,0,0-2.369.8.657.657,0,0,0-.244.511v4.432l-3.764,8.154-.157.08V38.647a8.563,8.563,0,0,0,3.267.772h12a3.006,3.006,0,0,0,2.962-2.283,2.94,2.94,0,0,0-.237-1.963,2.927,2.927,0,0,0,1.308-3.922A2.926,2.926,0,0,0,191.578,28.637Z" transform="translate(-170.667 -10.667)" fill="#ffc529"/>
      </g>
    </g>
  </g>
</svg>
