<svg xmlns="http://www.w3.org/2000/svg" width="29.054" height="26.148" viewBox="0 0 29.054 26.148">
  <g id="share" transform="translate(0 -21.334)">
    <g id="Group_109" data-name="Group 109" transform="translate(0 21.334)">
      <path id="Path_170" data-name="Path 170" d="M23.969,37.313a5.06,5.06,0,0,0-4,1.988L10.13,35.519c.01-.129.039-.253.039-.385a5.011,5.011,0,0,0-.072-.714l10.079-4.652a5.508,5.508,0,1,0-1.218-2.637L8.878,31.784a5.084,5.084,0,1,0,.21,6.446l9.835,3.783c-.01.129-.039.253-.039.385a5.084,5.084,0,1,0,5.084-5.084Z" transform="translate(0 -21.334)" fill="#707070"/>
    </g>
  </g>
</svg>
