<svg id="like" xmlns="http://www.w3.org/2000/svg" width="29.904" height="27.416" viewBox="0 0 29.904 27.416">
  <g id="Group_98" data-name="Group 98" transform="translate(21.182 0)">
    <g id="Group_97" data-name="Group 97" transform="translate(0)">
      <path id="Path_167" data-name="Path 167" d="M5.607,240.2a3.119,3.119,0,0,0,3.115-3.115v-9.968A3.119,3.119,0,0,0,5.607,224H1.869a3.093,3.093,0,0,0-1.869.63V240.2Z" transform="translate(0 -224)" fill="#707070"/>
    </g>
  </g>
  <g id="Group_100" data-name="Group 100" transform="translate(0 0.004)">
    <g id="Group_99" data-name="Group 99">
      <path id="Path_168" data-name="Path 168" d="M170.667,20.947a2.763,2.763,0,0,0,.811,1.961,3.094,3.094,0,0,0-.8,2.379,3.221,3.221,0,0,0,3.25,2.825h7.7a17.915,17.915,0,0,0-.992,4.984c0,2.7,2.3,4.984,3.738,4.984a3.919,3.919,0,0,0,2.259-.759.626.626,0,0,0,.233-.487V32.608l3.589-7.774.15-.076V11.4a8.164,8.164,0,0,0-3.115-.736H176.051a2.866,2.866,0,0,0-2.823,2.177,2.8,2.8,0,0,0,.226,1.872,2.791,2.791,0,0,0-1.247,3.739A2.789,2.789,0,0,0,170.667,20.947Z" transform="translate(-170.667 -10.667)" fill="#707070"/>
    </g>
  </g>
</svg>
