<svg xmlns="http://www.w3.org/2000/svg" width="54.881" height="59.142" viewBox="0 0 54.881 59.142">
  <g id="iconfinder_1_avatar_2754574" transform="translate(0)">
    <path id="Path_187" data-name="Path 187" d="M45.057,96.873c1.221-1.081,3.93-3.231,12.146-7.11l5.914,8.2,4.617-4.388,4.617,4.388,5.914-8.2c8.2,3.879,10.925,6.029,12.146,7.11a5.171,5.171,0,0,1,1.03,1.386,27.437,27.437,0,1,0-47.4.013A4.8,4.8,0,0,1,45.057,96.873Z" transform="translate(-40.3 -52.739)" fill="#ce6c21"/>
    <path id="Path_188" data-name="Path 188" d="M209.7,183.144v13.444a7.862,7.862,0,0,0,5.889,2.925V177.7C212.651,177.7,209.7,179.519,209.7,183.144Z" transform="translate(-188.155 -158.088)" fill="#dcc5a1"/>
    <path id="Path_189" data-name="Path 189" d="M256,177.7v21.8a7.515,7.515,0,0,0,5.889-2.925V183.144C261.889,179.519,258.938,177.7,256,177.7Z" transform="translate(-228.566 -158.088)" fill="#edd9b4"/>
    <path id="Path_190" data-name="Path 190" d="M221.478,175.822v8.992c-2.226,1.628-4.375,2.531-5.889,2.531s-3.663-.916-5.889-2.531v-8.992c0-7.262,11.778-7.262,11.778,0" transform="translate(-188.155 -151.694)" fill="#bc9f82" fill-rule="evenodd"/>
    <path id="Path_191" data-name="Path 191" d="M206.2,209.7c1.653,1.3,11.014,1.234,12.668,0-1.437,6.843-10.76,7.046-12.668,0" transform="translate(-185.1 -186.018)" fill="#fff" fill-rule="evenodd"/>
    <g id="Group_156" data-name="Group 156" transform="translate(11.166)">
      <path id="Path_192" data-name="Path 192" d="M144.36,23.5c-11.154,0-13.736,7.606-13.647,14.576a1.618,1.618,0,0,0-1.526-.42c-1.043.343-1.4,2.073-.814,3.866s1.908,2.963,2.951,2.633a.215.215,0,0,1,.064-.025A20.026,20.026,0,0,0,133,49.281c1.424,2.1,8.165,7.644,11.358,7.644h0V23.5Z" transform="translate(-128.091 -23.5)" fill="#dcc5a1"/>
      <path id="Path_193" data-name="Path 193" d="M271.123,37.656a1.6,1.6,0,0,0-1.475.382C269.736,31.08,267.129,23.5,256,23.5V56.925c3.192,0,9.933-5.558,11.358-7.644a19.887,19.887,0,0,0,1.615-5.126c.013,0,.013.013.025.013,1.043.343,2.353-.839,2.951-2.633C272.522,39.729,272.165,38,271.123,37.656Z" transform="translate(-239.732 -23.5)" fill="#edd9b4"/>
    </g>
    <path id="Path_194" data-name="Path 194" d="M261.889,298h0L256,303.927l4.617,4.388,5.914-8.2h0Z" transform="translate(-228.566 -263.087)" fill="#fff"/>
    <path id="Path_195" data-name="Path 195" d="M177.842,298h0l5.889,5.927-4.617,4.388-5.914-8.2h0Z" transform="translate(-156.297 -263.087)" fill="#fff"/>
    <path id="Path_196" data-name="Path 196" d="M162.251,23.5c-13.813,0-13.673,7.4-13.66,14.283.013,5.482,1.73,10.646,2.3,11.485,1.424,2.1,8.165,7.644,11.358,7.644s9.933-5.558,11.358-7.644c.572-.839,2.289-6,2.3-11.485C175.924,30.9,176.064,23.5,162.251,23.5ZM174.69,42.006c-.547,4.973-.75,5.838-2.277,7.784s-5.189,3.994-7.237,4.973c-1.959.928-.865-1.59-2.925-1.819-2.048.242-.967,2.747-2.925,1.819-2.06-.979-5.736-3.027-7.237-4.973s-1.73-2.811-2.277-7.784.1-13.952,3.345-13.736,5.3.763,9.081.763,5.838-.534,9.081-.763S175.225,37.02,174.69,42.006Z" transform="translate(-134.817 -23.5)" fill-rule="evenodd"/>
    <g id="Group_157" data-name="Group 157" transform="translate(20.986 15.097)">
      <path id="Path_197" data-name="Path 197" d="M206.572,142.2a1.448,1.448,0,1,1-1.272,1.437,1.367,1.367,0,0,1,1.272-1.437" transform="translate(-205.3 -142.2)" fill="#342214"/>
      <path id="Path_198" data-name="Path 198" d="M287.572,142.2a1.448,1.448,0,1,1-1.272,1.437,1.367,1.367,0,0,1,1.272-1.437" transform="translate(-275.998 -142.2)" fill="#342214"/>
      <path id="Path_199" data-name="Path 199" d="M235.2,213.8a2.875,2.875,0,0,0,5.24,0Z" transform="translate(-231.397 -204.693)" fill="#fff"/>
    </g>
    <path id="Path_200" data-name="Path 200" d="M256,488.5Z" transform="translate(-228.566 -429.358)" fill="#be1e2d"/>
    <path id="Path_201" data-name="Path 201" d="M108.659,329.99s.089.7.242,1.857a27.658,27.658,0,0,0,8.115-8.75,4.974,4.974,0,0,0-1.03-1.386c-1.221-1.081-3.93-3.231-12.146-7.11l-5.914,8.2-4.617-4.388L88.691,322.8l-5.914-8.2c-8.216,3.879-10.925,6.029-12.146,7.11A5.17,5.17,0,0,0,69.6,323.1a27.391,27.391,0,0,0,8.115,8.75c.153-1.157.242-1.857.242-1.857v2.035a27.286,27.286,0,0,0,15.339,4.693h0a27.327,27.327,0,0,0,15.351-4.693C108.659,330.753,108.659,329.99,108.659,329.99Z" transform="translate(-65.874 -277.576)" fill="#be1e2d"/>
    <path id="Path_202" data-name="Path 202" d="M133.642,435.6s-.089.7-.242,1.857c.076.051.165.114.242.165Z" transform="translate(-121.559 -383.186)" fill="#ac1927"/>
    <path id="Path_203" data-name="Path 203" d="M376.7,437.722c.089-.051.165-.114.242-.165-.153-1.157-.242-1.857-.242-1.857Z" transform="translate(-333.914 -383.273)" fill="#ac1927"/>
  </g>
</svg>
