<svg id="icons" xmlns="http://www.w3.org/2000/svg" width="30.301" height="29.259" viewBox="0 0 30.301 29.259">
  <path id="message" d="M25.25,1H5.05A5.207,5.207,0,0,0,0,6.323V19.632a5.207,5.207,0,0,0,5.05,5.323v3.993a1.255,1.255,0,0,0,2.146.932l4.671-4.924H25.25a5.207,5.207,0,0,0,5.05-5.323V6.323A5.207,5.207,0,0,0,25.25,1ZM17.675,16.97H10.1a1.226,1.226,0,0,1-1.263-1.331A1.226,1.226,0,0,1,10.1,14.309h7.575a1.226,1.226,0,0,1,1.263,1.331A1.226,1.226,0,0,1,17.675,16.97ZM20.2,11.647H10.1a1.226,1.226,0,0,1-1.263-1.331A1.226,1.226,0,0,1,10.1,8.985H20.2a1.226,1.226,0,0,1,1.263,1.331A1.226,1.226,0,0,1,20.2,11.647Z" transform="translate(0 -1)" fill="#707070"/>
</svg>
