<svg xmlns="http://www.w3.org/2000/svg" width="45.299" height="41.496" viewBox="0 0 45.299 41.496"><path d="M37.749,1H7.55A7.572,7.572,0,0,0,0,8.55V27.424a7.572,7.572,0,0,0,7.55,7.55v5.662a1.888,1.888,0,0,0,3.209,1.321l6.984-6.984H37.749a7.572,7.572,0,0,0,7.55-7.55V8.55A7.572,7.572,0,0,0,37.749,1ZM26.424,23.649H15.1a1.887,1.887,0,0,1,0-3.775H26.424a1.887,1.887,0,0,1,0,3.775ZM30.2,16.1H15.1a1.783,1.783,0,0,1-1.887-1.887A1.783,1.783,0,0,1,15.1,12.325H30.2a1.783,1.783,0,0,1,1.887,1.887A1.783,1.783,0,0,1,30.2,16.1Z" transform="translate(0 -1)"/></svg>